<svg width="641" height="640" viewBox="0 0 641 640" fill="none" xmlns="http://www.w3.org/2000/svg">
<path fill-rule="evenodd" clip-rule="evenodd" d="M323.746 2.5902C322.445 -0.863402 317.56 -0.863399 316.259 2.5902L272.266 119.402C266.642 134.334 248.658 140.248 235.27 131.567L126.676 61.1614C123.54 59.1283 119.577 62.1242 120.678 65.6958L156.689 182.546C161.558 198.347 150.023 214.438 133.495 214.899L3.89513 218.518C0.0877079 218.624 -1.43043 223.488 1.64056 225.741L102.638 299.843C116.253 309.832 116.253 330.167 102.638 340.156L1.64055 414.258C-1.43044 416.511 0.0877211 421.375 3.89515 421.481L133.495 425.1C150.023 425.561 161.558 441.652 156.689 457.453L120.678 574.303C119.577 577.875 123.54 580.871 126.676 578.838L235.27 508.432C248.658 499.752 266.642 505.665 272.266 520.598L316.259 637.409C317.56 640.863 322.445 640.863 323.746 637.409L367.739 520.598C373.362 505.665 391.346 499.752 404.735 508.432L513.328 578.838C516.464 580.871 520.428 577.875 519.327 574.303L483.316 457.453C478.446 441.652 489.982 425.561 506.509 425.1L636.109 421.481C639.917 421.375 641.435 416.511 638.364 414.258L537.367 340.156C523.752 330.167 523.752 309.832 537.367 299.843L638.364 225.741C641.435 223.488 639.917 218.624 636.109 218.518L506.509 214.899C489.982 214.438 478.446 198.347 483.316 182.546L519.327 65.6958C520.428 62.1242 516.464 59.1283 513.328 61.1614L404.735 131.567C391.346 140.248 373.363 134.334 367.739 119.402L323.746 2.5902ZM500.835 319.279C500.835 414.452 419.609 491.605 319.41 491.605C219.212 491.605 137.986 414.452 137.986 319.279C137.986 224.105 219.212 146.952 319.41 146.952C419.609 146.952 500.835 224.105 500.835 319.279ZM478.062 319.279C478.062 402.506 407.032 469.974 319.41 469.974C231.789 469.974 160.759 402.506 160.759 319.279C160.759 236.052 231.789 168.583 319.41 168.583C407.032 168.583 478.062 236.052 478.062 319.279Z" fill="url(#paint0_linear_2_503)"/>
<defs>
<linearGradient id="paint0_linear_2_503" x1="-0.292602" y1="640.241" x2="639.712" y2="640.241" gradientUnits="userSpaceOnUse">
<stop stop-color="#026A37"/>
<stop offset="1" stop-color="#93CD24"/>
</linearGradient>
</defs>
</svg>
