<svg width="688" height="313" viewBox="0 0 688 313" fill="none" xmlns="http://www.w3.org/2000/svg">
<path d="M10.8381 277V157.8H56.5981C64.8115 157.8 72.0648 159.24 78.3581 162.12C84.7581 165 89.7715 169.267 93.3981 174.92C97.0248 180.573 98.8381 187.56 98.8381 195.88C98.8381 203.987 96.9715 210.867 93.2381 216.52C89.6115 222.173 84.5981 226.493 78.1981 229.48C71.9048 232.36 64.7048 233.8 56.5981 233.8H35.6381V277H10.8381ZM35.6381 212.2H56.7581C60.2781 212.2 63.3181 211.507 65.8781 210.12C68.4381 208.733 70.4115 206.813 71.7981 204.36C73.2915 201.907 74.0381 199.08 74.0381 195.88C74.0381 192.573 73.2915 189.693 71.7981 187.24C70.4115 184.787 68.4381 182.867 65.8781 181.48C63.3181 180.093 60.2781 179.4 56.7581 179.4H35.6381V212.2ZM109.784 277V189.64H132.184V210.6L130.584 207.56C132.504 200.2 135.651 195.24 140.024 192.68C144.504 190.013 149.784 188.68 155.864 188.68H160.984V209.48H153.464C147.598 209.48 142.851 211.293 139.224 214.92C135.598 218.44 133.784 223.453 133.784 229.96V277H109.784ZM195.343 278.92C189.05 278.92 183.61 277.907 179.023 275.88C174.436 273.853 170.916 270.973 168.463 267.24C166.01 263.4 164.783 258.867 164.783 253.64C164.783 248.733 165.903 244.413 168.143 240.68C170.383 236.84 173.796 233.64 178.383 231.08C183.076 228.52 188.89 226.707 195.823 225.64L222.543 221.32V238.92L200.143 242.92C196.73 243.56 194.116 244.68 192.303 246.28C190.49 247.773 189.583 249.96 189.583 252.84C189.583 255.507 190.596 257.587 192.623 259.08C194.65 260.573 197.156 261.32 200.143 261.32C204.09 261.32 207.556 260.467 210.543 258.76C213.53 257.053 215.823 254.76 217.423 251.88C219.13 248.893 219.983 245.64 219.983 242.12V219.4C219.983 216.093 218.65 213.32 215.983 211.08C213.423 208.84 209.903 207.72 205.423 207.72C201.156 207.72 197.37 208.893 194.063 211.24C190.863 213.587 188.516 216.68 187.023 220.52L167.823 211.4C169.53 206.493 172.25 202.28 175.983 198.76C179.716 195.24 184.196 192.52 189.423 190.6C194.65 188.68 200.356 187.72 206.543 187.72C213.903 187.72 220.41 189.053 226.063 191.72C231.716 194.387 236.09 198.12 239.183 202.92C242.383 207.613 243.983 213.107 243.983 219.4V277H221.583V262.92L227.023 261.96C224.463 265.8 221.636 269 218.543 271.56C215.45 274.013 211.983 275.827 208.143 277C204.303 278.28 200.036 278.92 195.343 278.92ZM271.984 312.52C269.424 312.52 266.918 312.307 264.464 311.88C262.118 311.453 260.038 310.76 258.224 309.8V290.12C259.718 290.547 261.478 290.92 263.504 291.24C265.531 291.56 267.398 291.72 269.104 291.72C273.798 291.72 277.158 290.6 279.184 288.36C281.211 286.12 282.864 283.56 284.144 280.68L290.064 267.08L289.744 287.08L251.344 189.64H277.104L302.544 258.92H292.944L318.384 189.64H344.144L306.704 285.16C304.358 291.24 301.478 296.307 298.064 300.36C294.651 304.413 290.758 307.453 286.384 309.48C282.118 311.507 277.318 312.52 271.984 312.52ZM409.834 278.92C401.301 278.92 393.354 277.373 385.994 274.28C378.741 271.187 372.394 266.867 366.954 261.32C361.514 255.773 357.248 249.267 354.154 241.8C351.168 234.333 349.674 226.173 349.674 217.32C349.674 208.467 351.168 200.307 354.154 192.84C357.141 185.267 361.354 178.76 366.794 173.32C372.234 167.773 378.581 163.507 385.834 160.52C393.194 157.427 401.194 155.88 409.834 155.88C418.474 155.88 426.208 157.32 433.034 160.2C439.968 163.08 445.834 166.92 450.634 171.72C455.434 176.52 458.848 181.853 460.874 187.72L438.954 198.28C436.928 192.52 433.354 187.773 428.234 184.04C423.221 180.2 417.088 178.28 409.834 178.28C402.794 178.28 396.608 179.933 391.274 183.24C385.941 186.547 381.781 191.133 378.794 197C375.914 202.76 374.474 209.533 374.474 217.32C374.474 225.107 375.914 231.933 378.794 237.8C381.781 243.667 385.941 248.253 391.274 251.56C396.608 254.867 402.794 256.52 409.834 256.52C417.088 256.52 423.221 254.653 428.234 250.92C433.354 247.08 436.928 242.28 438.954 236.52L460.874 247.08C458.848 252.947 455.434 258.28 450.634 263.08C445.834 267.88 439.968 271.72 433.034 274.6C426.208 277.48 418.474 278.92 409.834 278.92ZM497.306 278.92C491.012 278.92 485.572 277.907 480.986 275.88C476.399 273.853 472.879 270.973 470.426 267.24C467.972 263.4 466.746 258.867 466.746 253.64C466.746 248.733 467.866 244.413 470.106 240.68C472.346 236.84 475.759 233.64 480.346 231.08C485.039 228.52 490.852 226.707 497.786 225.64L524.506 221.32V238.92L502.106 242.92C498.692 243.56 496.079 244.68 494.266 246.28C492.452 247.773 491.546 249.96 491.546 252.84C491.546 255.507 492.559 257.587 494.586 259.08C496.612 260.573 499.119 261.32 502.106 261.32C506.052 261.32 509.519 260.467 512.506 258.76C515.492 257.053 517.786 254.76 519.386 251.88C521.092 248.893 521.946 245.64 521.946 242.12V219.4C521.946 216.093 520.612 213.32 517.946 211.08C515.386 208.84 511.866 207.72 507.386 207.72C503.119 207.72 499.332 208.893 496.026 211.24C492.826 213.587 490.479 216.68 488.986 220.52L469.786 211.4C471.492 206.493 474.212 202.28 477.946 198.76C481.679 195.24 486.159 192.52 491.386 190.6C496.612 188.68 502.319 187.72 508.506 187.72C515.866 187.72 522.372 189.053 528.026 191.72C533.679 194.387 538.052 198.12 541.146 202.92C544.346 207.613 545.946 213.107 545.946 219.4V277H523.546V262.92L528.986 261.96C526.426 265.8 523.599 269 520.506 271.56C517.412 274.013 513.946 275.827 510.106 277C506.266 278.28 501.999 278.92 497.306 278.92ZM560.347 277V155.88H584.347V277H560.347ZM641.589 278.92C632.843 278.92 624.949 276.947 617.909 273C610.976 268.947 605.429 263.453 601.269 256.52C597.216 249.587 595.189 241.8 595.189 233.16C595.189 224.52 597.216 216.787 601.269 209.96C605.323 203.027 610.869 197.587 617.909 193.64C624.949 189.693 632.843 187.72 641.589 187.72C648.096 187.72 654.123 188.84 659.669 191.08C665.216 193.32 669.963 196.467 673.909 200.52C677.856 204.467 680.683 209.16 682.389 214.6L661.589 223.56C660.096 219.187 657.536 215.72 653.909 213.16C650.389 210.6 646.283 209.32 641.589 209.32C637.429 209.32 633.696 210.333 630.389 212.36C627.189 214.387 624.629 217.213 622.709 220.84C620.896 224.467 619.989 228.627 619.989 233.32C619.989 238.013 620.896 242.173 622.709 245.8C624.629 249.427 627.189 252.253 630.389 254.28C633.696 256.307 637.429 257.32 641.589 257.32C646.389 257.32 650.549 256.04 654.069 253.48C657.589 250.92 660.096 247.453 661.589 243.08L682.389 252.2C680.789 257.32 678.016 261.907 674.069 265.96C670.123 270.013 665.376 273.213 659.829 275.56C654.283 277.8 648.203 278.92 641.589 278.92Z" fill="url(#paint0_linear_5_123)"/>
<mask id="mask0_5_123" style="mask-type:alpha" maskUnits="userSpaceOnUse" x="32" y="0" width="474" height="313">
<rect x="32" width="474" height="313" fill="url(#paint1_linear_5_123)"/>
</mask>
<g mask="url(#mask0_5_123)">
<path d="M274.73 2.97334C276.054 -0.991112 281.946 -0.991112 283.27 2.97334L304.129 65.4431C310.171 83.5356 333.093 90.6266 349.15 79.3702L404.592 40.5045C408.111 38.0381 412.877 41.3353 411.501 45.2833L389.81 107.496C383.528 125.514 397.694 144.078 417.634 143.957L486.483 143.541C490.852 143.515 492.672 148.85 489.122 151.273L462.176 169.664C460.804 167.928 459.312 166.256 457.706 164.649C451.892 158.836 444.9 154.304 436.897 150.976C428.66 147.505 419.581 145.88 409.834 145.88C399.994 145.88 390.682 147.644 382.012 151.279C360.668 118.59 322.604 96.8275 279.202 96.8275C224.561 96.8275 178.382 131.318 163.372 178.68H155.864C151.087 178.68 146.496 179.346 142.184 180.773V179.64H110.44L105.228 176.083C104.289 173.8 103.155 171.609 101.815 169.52C97.0988 162.169 90.562 156.652 82.4909 153.014C77.6694 150.811 72.5075 149.341 67.0586 148.539C66.6447 146.138 68.455 143.522 71.5175 143.541L140.366 143.957C160.306 144.078 174.473 125.514 168.191 107.496L146.499 45.2833C145.123 41.3353 149.889 38.0381 153.407 40.5045L208.85 79.3702C224.908 90.6266 247.83 83.5356 253.871 65.4433L274.73 2.97334Z" fill="#2D2D2D"/>
<path d="M274.73 2.97334C276.054 -0.991112 281.946 -0.991112 283.27 2.97334L304.129 65.4431C310.171 83.5356 333.093 90.6266 349.15 79.3702L404.592 40.5045C408.111 38.0381 412.877 41.3353 411.501 45.2833L389.81 107.496C383.528 125.514 397.694 144.078 417.634 143.957L486.483 143.541C490.852 143.515 492.672 148.85 489.122 151.273L462.176 169.664C460.804 167.928 459.312 166.256 457.706 164.649C451.892 158.836 444.9 154.304 436.897 150.976C428.66 147.505 419.581 145.88 409.834 145.88C399.994 145.88 390.682 147.644 382.012 151.279C360.668 118.59 322.604 96.8275 279.202 96.8275C224.561 96.8275 178.382 131.318 163.372 178.68H155.864C151.087 178.68 146.496 179.346 142.184 180.773V179.64H110.44L105.228 176.083C104.289 173.8 103.155 171.609 101.815 169.52C97.0988 162.169 90.562 156.652 82.4909 153.014C77.6694 150.811 72.5075 149.341 67.0586 148.539C66.6447 146.138 68.455 143.522 71.5175 143.541L140.366 143.957C160.306 144.078 174.473 125.514 168.191 107.496L146.499 45.2833C145.123 41.3353 149.889 38.0381 153.407 40.5045L208.85 79.3702C224.908 90.6266 247.83 83.5356 253.871 65.4433L274.73 2.97334Z" fill="url(#paint2_linear_5_123)"/>
<path d="M458.778 252.016C458.216 253.123 457.598 254.209 456.926 255.273L456.932 255.264C457.109 254.983 457.283 254.7 457.453 254.416C457.606 254.159 457.757 253.9 457.905 253.64C458.083 253.326 458.257 253.011 458.426 252.693C458.546 252.469 458.663 252.243 458.778 252.016Z" fill="#2D2D2D"/>
<path d="M458.778 252.016C458.216 253.123 457.598 254.209 456.926 255.273L456.932 255.264C457.109 254.983 457.283 254.7 457.453 254.416C457.606 254.159 457.757 253.9 457.905 253.64C458.083 253.326 458.257 253.011 458.426 252.693C458.546 252.469 458.663 252.243 458.778 252.016Z" fill="url(#paint3_linear_5_123)"/>
<path d="M456.801 255.47C456.711 255.61 456.62 255.751 456.528 255.89C456.615 255.758 456.701 255.626 456.786 255.493L456.801 255.47Z" fill="#2D2D2D"/>
<path d="M456.801 255.47C456.711 255.61 456.62 255.751 456.528 255.89C456.615 255.758 456.701 255.626 456.786 255.493L456.801 255.47Z" fill="url(#paint4_linear_5_123)"/>
<path d="M429.945 231.996C419.371 222.38 418.182 206.862 426.38 195.919C425.267 194.54 423.93 193.278 422.343 192.12L422.247 192.051L422.154 191.979C419.138 189.669 415.231 188.28 409.834 188.28C405.204 188.28 401.375 189.195 398.134 190.843C399.472 197.701 400.171 204.773 400.171 212C400.171 222.6 398.667 232.866 395.851 242.615C396.079 242.767 396.31 242.916 396.544 243.061C400.107 245.27 404.423 246.52 409.834 246.52C415.286 246.52 419.229 245.153 422.248 242.91C425.859 240.198 428.185 236.998 429.521 233.201L429.945 231.996Z" fill="#2D2D2D"/>
<path d="M429.945 231.996C419.371 222.38 418.182 206.862 426.38 195.919C425.267 194.54 423.93 193.278 422.343 192.12L422.247 192.051L422.154 191.979C419.138 189.669 415.231 188.28 409.834 188.28C405.204 188.28 401.375 189.195 398.134 190.843C399.472 197.701 400.171 204.773 400.171 212C400.171 222.6 398.667 232.866 395.851 242.615C396.079 242.767 396.31 242.916 396.544 243.061C400.107 245.27 404.423 246.52 409.834 246.52C415.286 246.52 419.229 245.153 422.248 242.91C425.859 240.198 428.185 236.998 429.521 233.201L429.945 231.996Z" fill="url(#paint5_linear_5_123)"/>
<path d="M279.202 111.757C316.814 111.757 349.82 130.535 368.442 158.78C365.332 161.009 362.413 163.51 359.69 166.282C355.698 170.279 352.287 174.742 349.447 179.64H311.404L297.744 216.838L284.085 179.64H236.655L240.431 189.221C237.451 186.617 234.067 184.439 230.329 182.676C223.125 179.278 215.119 177.72 206.543 177.72C199.31 177.72 192.422 178.845 185.975 181.213C183.086 182.275 180.343 183.552 177.762 185.052C190.125 142.777 230.858 111.757 279.202 111.757Z" fill="#2D2D2D"/>
<path d="M279.202 111.757C316.814 111.757 349.82 130.535 368.442 158.78C365.332 161.009 362.413 163.51 359.69 166.282C355.698 170.279 352.287 174.742 349.447 179.64H311.404L297.744 216.838L284.085 179.64H236.655L240.431 189.221C237.451 186.617 234.067 184.439 230.329 182.676C223.125 179.278 215.119 177.72 206.543 177.72C199.31 177.72 192.422 178.845 185.975 181.213C183.086 182.275 180.343 183.552 177.762 185.052C190.125 142.777 230.858 111.757 279.202 111.757Z" fill="url(#paint6_linear_5_123)"/>
<path d="M195.758 225.65L195.823 225.64C195.801 225.643 195.78 225.647 195.758 225.65Z" fill="#2D2D2D"/>
<path d="M195.758 225.65L195.823 225.64C195.801 225.643 195.78 225.647 195.758 225.65Z" fill="url(#paint7_linear_5_123)"/>
<path d="M160.459 234.107C159.483 229.33 158.818 224.448 158.483 219.48H153.464C149.835 219.48 147.773 220.514 146.295 221.991L146.243 222.044L146.189 222.096C145.02 223.231 143.784 225.341 143.784 229.96V280.207C161.885 282.08 174.107 299.534 168.191 316.504L146.499 378.717C145.123 382.665 149.889 385.962 153.407 383.496L208.851 344.63C224.908 333.373 247.83 340.464 253.871 358.557L274.73 421.027C276.054 424.991 281.946 424.991 283.27 421.027L304.129 358.557C310.171 340.464 333.093 333.373 349.15 344.63L404.592 383.496C408.111 385.962 412.877 382.665 411.501 378.717L389.81 316.504C386.082 305.811 389.555 294.926 397.163 287.868C391.973 286.981 386.953 285.53 382.12 283.499L382.096 283.489L382.072 283.478C380.092 282.634 378.167 281.71 376.299 280.705C354.249 308.906 318.966 327.173 279.202 327.173C243.278 327.173 211.011 312.264 188.856 288.591C183.933 288.072 179.276 286.925 174.981 285.027C168.857 282.321 163.742 278.265 160.106 272.732L160.071 272.678L160.036 272.624C156.411 266.95 154.783 260.487 154.783 253.64C154.783 247.177 156.272 241.052 159.537 235.587C159.832 235.084 160.139 234.59 160.459 234.107Z" fill="#2D2D2D"/>
<path d="M160.459 234.107C159.483 229.33 158.818 224.448 158.483 219.48H153.464C149.835 219.48 147.773 220.514 146.295 221.991L146.243 222.044L146.189 222.096C145.02 223.231 143.784 225.341 143.784 229.96V280.207C161.885 282.08 174.107 299.534 168.191 316.504L146.499 378.717C145.123 382.665 149.889 385.962 153.407 383.496L208.851 344.63C224.908 333.373 247.83 340.464 253.871 358.557L274.73 421.027C276.054 424.991 281.946 424.991 283.27 421.027L304.129 358.557C310.171 340.464 333.093 333.373 349.15 344.63L404.592 383.496C408.111 385.962 412.877 382.665 411.501 378.717L389.81 316.504C386.082 305.811 389.555 294.926 397.163 287.868C391.973 286.981 386.953 285.53 382.12 283.499L382.096 283.489L382.072 283.478C380.092 282.634 378.167 281.71 376.299 280.705C354.249 308.906 318.966 327.173 279.202 327.173C243.278 327.173 211.011 312.264 188.856 288.591C183.933 288.072 179.276 286.925 174.981 285.027C168.857 282.321 163.742 278.265 160.106 272.732L160.071 272.678L160.036 272.624C156.411 266.95 154.783 260.487 154.783 253.64C154.783 247.177 156.272 241.052 159.537 235.587C159.832 235.084 160.139 234.59 160.459 234.107Z" fill="url(#paint8_linear_5_123)"/>
<path d="M68.8789 272.727L99.7844 251.633V280.288L71.5175 280.459C67.1484 280.485 65.3276 275.15 68.8789 272.727Z" fill="#2D2D2D"/>
<path d="M68.8789 272.727L99.7844 251.633V280.288L71.5175 280.459C67.1484 280.485 65.3276 275.15 68.8789 272.727Z" fill="url(#paint9_linear_5_123)"/>
<path d="M457.706 270.151C453.777 274.079 449.311 277.422 444.358 280.204L469.09 280.354C466.375 278.222 464.011 275.688 462.069 272.732L462.033 272.678L461.999 272.624C461.077 271.182 460.285 269.688 459.615 268.151C458.998 268.828 458.361 269.495 457.706 270.151Z" fill="#2D2D2D"/>
<path d="M457.706 270.151C453.777 274.079 449.311 277.422 444.358 280.204L469.09 280.354C466.375 278.222 464.011 275.688 462.069 272.732L462.033 272.678L461.999 272.624C461.077 271.182 460.285 269.688 459.615 268.151C458.998 268.828 458.361 269.495 457.706 270.151Z" fill="url(#paint10_linear_5_123)"/>
<path d="M303.127 309.643C327.712 304.204 348.993 290.566 363.618 271.919C362.311 270.773 361.043 269.574 359.815 268.322C353.442 261.825 348.479 254.228 344.916 245.627L344.892 245.571L344.87 245.514C342.521 239.643 340.987 233.469 340.231 227.027L316.034 288.761L316.025 288.783C313.369 295.658 309.978 301.737 305.713 306.801C304.881 307.79 304.019 308.738 303.127 309.643Z" fill="#2D2D2D"/>
<path d="M303.127 309.643C327.712 304.204 348.993 290.566 363.618 271.919C362.311 270.773 361.043 269.574 359.815 268.322C353.442 261.825 348.479 254.228 344.916 245.627L344.892 245.571L344.87 245.514C342.521 239.643 340.987 233.469 340.231 227.027L316.034 288.761L316.025 288.783C313.369 295.658 309.978 301.737 305.713 306.801C304.881 307.79 304.019 308.738 303.127 309.643Z" fill="url(#paint11_linear_5_123)"/>
<path d="M279.404 288.115L279.339 288.188C279.321 288.208 279.302 288.229 279.284 288.25C279.324 288.204 279.363 288.16 279.404 288.115Z" fill="#2D2D2D"/>
<path d="M279.404 288.115L279.339 288.188C279.321 288.208 279.302 288.229 279.284 288.25C279.324 288.204 279.363 288.16 279.404 288.115Z" fill="url(#paint12_linear_5_123)"/>
<path d="M209.422 287.068C220.517 296.423 233.702 303.584 248.224 307.834V287H211.583V286.402L211.372 286.469L211.185 286.527C210.602 286.719 210.014 286.899 209.422 287.068Z" fill="#2D2D2D"/>
<path d="M209.422 287.068C220.517 296.423 233.702 303.584 248.224 307.834V287H211.583V286.402L211.372 286.469L211.185 286.527C210.602 286.719 210.014 286.899 209.422 287.068Z" fill="url(#paint13_linear_5_123)"/>
<path d="M253.983 223.61V278.508L260.972 280.505C261.974 280.791 263.319 281.087 265.064 281.362C266.674 281.617 268.012 281.72 269.104 281.72C270.704 281.72 271.592 281.523 271.982 281.393L272.004 281.386C273.153 280.064 274.133 278.543 274.935 276.776L253.983 223.61Z" fill="#2D2D2D"/>
<path d="M253.983 223.61V278.508L260.972 280.505C261.974 280.791 263.319 281.087 265.064 281.362C266.674 281.617 268.012 281.72 269.104 281.72C270.704 281.72 271.592 281.523 271.982 281.393L272.004 281.386C273.153 280.064 274.133 278.543 274.935 276.776L253.983 223.61Z" fill="url(#paint14_linear_5_123)"/>
</g>
<defs>
<linearGradient id="paint0_linear_5_123" x1="-0.314544" y1="313.076" x2="683.5" y2="176" gradientUnits="userSpaceOnUse">
<stop stop-color="#026A37"/>
<stop offset="1" stop-color="#93CD24"/>
</linearGradient>
<linearGradient id="paint1_linear_5_123" x1="269" y1="-2.34686e-06" x2="295" y2="216" gradientUnits="userSpaceOnUse">
<stop stop-color="#D9D9D9"/>
<stop offset="1" stop-color="#D9D9D9" stop-opacity="0"/>
</linearGradient>
<linearGradient id="paint2_linear_5_123" x1="66.8062" y1="424.16" x2="490.806" y2="424.16" gradientUnits="userSpaceOnUse">
<stop stop-color="#026A37"/>
<stop offset="1" stop-color="#93CD24"/>
</linearGradient>
<linearGradient id="paint3_linear_5_123" x1="66.8062" y1="424.16" x2="490.806" y2="424.16" gradientUnits="userSpaceOnUse">
<stop stop-color="#026A37"/>
<stop offset="1" stop-color="#93CD24"/>
</linearGradient>
<linearGradient id="paint4_linear_5_123" x1="66.8062" y1="424.16" x2="490.806" y2="424.16" gradientUnits="userSpaceOnUse">
<stop stop-color="#026A37"/>
<stop offset="1" stop-color="#93CD24"/>
</linearGradient>
<linearGradient id="paint5_linear_5_123" x1="66.8062" y1="424.16" x2="490.806" y2="424.16" gradientUnits="userSpaceOnUse">
<stop stop-color="#026A37"/>
<stop offset="1" stop-color="#93CD24"/>
</linearGradient>
<linearGradient id="paint6_linear_5_123" x1="66.8062" y1="424.16" x2="490.806" y2="424.16" gradientUnits="userSpaceOnUse">
<stop stop-color="#026A37"/>
<stop offset="1" stop-color="#93CD24"/>
</linearGradient>
<linearGradient id="paint7_linear_5_123" x1="66.8062" y1="424.16" x2="490.806" y2="424.16" gradientUnits="userSpaceOnUse">
<stop stop-color="#026A37"/>
<stop offset="1" stop-color="#93CD24"/>
</linearGradient>
<linearGradient id="paint8_linear_5_123" x1="66.8062" y1="424.16" x2="490.806" y2="424.16" gradientUnits="userSpaceOnUse">
<stop stop-color="#026A37"/>
<stop offset="1" stop-color="#93CD24"/>
</linearGradient>
<linearGradient id="paint9_linear_5_123" x1="66.8062" y1="424.16" x2="490.806" y2="424.16" gradientUnits="userSpaceOnUse">
<stop stop-color="#026A37"/>
<stop offset="1" stop-color="#93CD24"/>
</linearGradient>
<linearGradient id="paint10_linear_5_123" x1="66.8062" y1="424.16" x2="490.806" y2="424.16" gradientUnits="userSpaceOnUse">
<stop stop-color="#026A37"/>
<stop offset="1" stop-color="#93CD24"/>
</linearGradient>
<linearGradient id="paint11_linear_5_123" x1="66.8062" y1="424.16" x2="490.806" y2="424.16" gradientUnits="userSpaceOnUse">
<stop stop-color="#026A37"/>
<stop offset="1" stop-color="#93CD24"/>
</linearGradient>
<linearGradient id="paint12_linear_5_123" x1="66.8062" y1="424.16" x2="490.806" y2="424.16" gradientUnits="userSpaceOnUse">
<stop stop-color="#026A37"/>
<stop offset="1" stop-color="#93CD24"/>
</linearGradient>
<linearGradient id="paint13_linear_5_123" x1="66.8062" y1="424.16" x2="490.806" y2="424.16" gradientUnits="userSpaceOnUse">
<stop stop-color="#026A37"/>
<stop offset="1" stop-color="#93CD24"/>
</linearGradient>
<linearGradient id="paint14_linear_5_123" x1="66.8062" y1="424.16" x2="490.806" y2="424.16" gradientUnits="userSpaceOnUse">
<stop stop-color="#026A37"/>
<stop offset="1" stop-color="#93CD24"/>
</linearGradient>
</defs>
</svg>
